<svg width="1200" height="320" viewBox="0 0 1200 320" fill="none" xmlns="http://www.w3.org/2000/svg">
  <defs>
    <linearGradient id="g" x1="0" y1="0" x2="1200" y2="320" gradientUnits="userSpaceOnUse">
      <stop stop-color="#0066CC"/>
      <stop offset="1" stop-color="#00A6E0"/>
    </linearGradient>
    <filter id="shadow" x="-20" y="-20" width="1240" height="360" filterUnits="userSpaceOnUse" color-interpolation-filters="sRGB">
      <feDropShadow dx="0" dy="14" stdDeviation="18" flood-color="#000" flood-opacity="0.18"/>
    </filter>
  </defs>

  <rect width="1200" height="320" rx="28" fill="url(#g)"/>

  <!-- Decorative blobs -->
  <circle cx="1020" cy="70" r="140" fill="white" opacity="0.12"/>
  <circle cx="1100" cy="260" r="180" fill="white" opacity="0.10"/>
  <circle cx="860" cy="270" r="120" fill="white" opacity="0.09"/>

  <!-- Left content -->
  <g filter="url(#shadow)">
    <rect x="70" y="62" width="660" height="196" rx="20" fill="white" opacity="0.98"/>
  </g>

  <text x="110" y="128" font-family="Segoe UI, Inter, Arial" font-size="44" font-weight="800" fill="#1A1A2E">
    DermaAI
  </text>
  <text x="110" y="168" font-family="Segoe UI, Inter, Arial" font-size="20" font-weight="600" fill="#2D3748">
    Skin Lesion Classification using CNN + ResNet
  </text>
  <text x="110" y="206" font-family="Segoe UI, Inter, Arial" font-size="16" fill="#4A5568">
    Flask web app • Medical imaging pipeline • Production-style UI
  </text>

  <!-- Right icon-ish mark -->
  <g transform="translate(830,70)">
    <rect width="300" height="180" rx="22" fill="white" opacity="0.14"/>
    <circle cx="150" cy="90" r="58" fill="white" opacity="0.20"/>
    <path d="M150 56c-16 0-29 13-29 29 0 19 17 27 29 45 12-18 29-26 29-45 0-16-13-29-29-29z" fill="white" opacity="0.9"/>
    <path d="M136 90h28" stroke="#0066CC" stroke-width="6" stroke-linecap="round"/>
    <path d="M150 76v28" stroke="#0066CC" stroke-width="6" stroke-linecap="round"/>
  </g>
</svg>
